HIERARCHY
ROOT root
{
	OFFSET 0.000000 0.000000 0.000000
	CHANNELS 6 Xposition Yposition Zposition Zrotation Yrotation Xrotation
	JOINT lhip
	{
		OFFSET 0.058581 -0.082280 -0.017664
		CHANNELS 3 Zrotation Yrotation Xrotation
		JOINT lknee
		{
			OFFSET 0.043451 -0.386469 0.008037
			CHANNELS 3 Zrotation Yrotation Xrotation
			JOINT lankle
			{
				OFFSET -0.014790 -0.426874 -0.037428
				CHANNELS 3 Zrotation Yrotation Xrotation
				JOINT ltoe
				{
					OFFSET 0.041054 -0.060286 0.122042
					CHANNELS 3 Zrotation Yrotation Xrotation
					End Site
					{
						OFFSET 0.000000 0.000000 0.000000
					}
				}
			}
		}
	}
	JOINT rhip
	{
		OFFSET -0.060310 -0.090513 -0.013543
		CHANNELS 3 Zrotation Yrotation Xrotation
		JOINT rknee
		{
			OFFSET -0.043257 -0.383688 -0.004843
			CHANNELS 3 Zrotation Yrotation Xrotation
			JOINT rankle
			{
				OFFSET 0.019056 -0.420046 -0.034562
				CHANNELS 3 Zrotation Yrotation Xrotation
				JOINT rtoe
				{
					OFFSET -0.034840 -0.062106 0.130323
					CHANNELS 3 Zrotation Yrotation Xrotation
					End Site
					{
						OFFSET 0.000000 0.000000 0.000000
					}
				}
			}
		}
	}
	JOINT lowerback
	{
		OFFSET 0.004439 0.124404 -0.038385
		CHANNELS 3 Zrotation Yrotation Xrotation
		JOINT upperback
		{
			OFFSET 0.004488 0.137956 0.026820
			CHANNELS 3 Zrotation Yrotation Xrotation
			JOINT chest
			{
				OFFSET -0.002265 0.056032 0.002855
				CHANNELS 3 Zrotation Yrotation Xrotation
				JOINT lowerneck
				{
					OFFSET -0.013390 0.211636 -0.033468
					CHANNELS 3 Zrotation Yrotation Xrotation
					JOINT upperneck
					{
						OFFSET 0.010113 0.088937 0.050410
						CHANNELS 3 Zrotation Yrotation Xrotation
						End Site
						{
							OFFSET 0.000000 0.000000 0.000000
						}
					}
				}
				JOINT lclavicle
				{
					OFFSET 0.071702 0.114000 -0.018898
					CHANNELS 3 Zrotation Yrotation Xrotation
					JOINT lshoulder
					{
						OFFSET 0.122921 0.045205 -0.019046
						CHANNELS 3 Zrotation Yrotation Xrotation
						JOINT lelbow
						{
							OFFSET 0.255332 -0.015649 -0.022946
							CHANNELS 3 Zrotation Yrotation Xrotation
							JOINT lwrist
							{
								OFFSET 0.265709 0.012698 -0.007375
								CHANNELS 3 Zrotation Yrotation Xrotation
								End Site
								{
									OFFSET 0.000000 0.000000 0.000000
								}
							}
						}
					}
				}
				JOINT rclavicle
				{
					OFFSET -0.082954 0.112472 -0.023707
					CHANNELS 3 Zrotation Yrotation Xrotation
					JOINT rshoulder
					{
						OFFSET -0.113228 0.046853 -0.008472
						CHANNELS 3 Zrotation Yrotation Xrotation
						JOINT relbow
						{
							OFFSET -0.260127 -0.014369 -0.031269
							CHANNELS 3 Zrotation Yrotation Xrotation
							JOINT rwrist
							{
								OFFSET -0.269108 0.006794 -0.006027
								CHANNELS 3 Zrotation Yrotation Xrotation
								End Site
								{
									OFFSET 0.000000 0.000000 0.000000
								}
							}
						}
					}
				}
			}
		}
	}
}
MOTION
Frames: 5
Frame Time: 0.033333
-0.808049 0.571681 0.981034 91.749660 0.313366 83.865079 -3.103709 -1.095699 3.448092 -3.315994 -6.757390 7.479137 5.177979 11.360438 -22.956177 0.000000 -0.000000 0.000000 2.163358 -0.506636 -1.362418 -0.474912 -2.315493 15.056137 1.755181 -6.861419 -15.382470 0.000000 -0.000000 0.000000 -0.499192 -0.022408 9.680841 1.264229 -2.379715 0.337106 -0.094277 -1.203902 2.276696 1.827630 2.975446 -7.879930 2.414420 -2.780029 -2.398183 -25.398893 3.399877 4.175302 -58.052841 -1.202218 16.618303 -4.395813 -44.146161 20.593259 6.275052 -11.266953 -19.641915 25.826780 1.295803 3.672418 58.558289 1.351441 18.660666 -2.654994 36.172785 7.931417 -9.012549 9.150524 -11.271183 
-0.807475 0.571016 0.981013 91.862116 0.388209 84.152870 -2.974356 -1.284461 3.135167 -3.369234 -6.914956 7.514137 5.149949 11.472467 -23.064209 0.000000 -0.000000 0.000000 2.257409 -0.516439 -1.384458 -0.323759 -2.062456 14.620584 1.933799 -7.201560 -15.366101 0.000000 -0.000000 0.000000 -0.337115 -0.192603 9.730712 1.110656 -2.292977 0.146952 -0.107258 -1.189513 2.563520 1.934715 2.955653 -8.515975 2.303779 -2.759961 -1.973754 -25.243980 3.419650 4.199879 -58.321826 -1.392878 16.520874 -4.017825 -43.992962 20.361302 6.533558 -11.494418 -19.830498 25.809117 1.406632 3.590945 58.593679 1.299760 18.875656 -2.729986 36.090283 8.498457 -9.405893 9.772764 -10.420151 
-0.806513 0.570372 0.981095 91.802676 0.375639 84.410466 -2.926314 -1.227383 3.062052 -3.312706 -6.913971 7.206829 5.303785 11.316150 -23.122630 0.000000 -0.000000 0.000000 2.297125 -0.639002 -1.357652 -0.341975 -2.102130 14.116038 1.980601 -7.133966 -15.356197 0.000000 -0.000000 0.000000 -0.316914 -0.160707 9.710333 1.052480 -2.249094 0.102010 -0.099046 -1.094277 2.568302 1.919862 2.927933 -8.562261 2.316213 -2.755204 -1.857701 -25.194310 3.454500 4.253544 -58.480941 -1.379175 16.432452 -3.720972 -43.859643 20.028621 6.830449 -11.488258 -19.950920 25.801617 1.422458 3.734522 58.576258 1.264775 18.894166 -2.702511 36.200035 8.859898 -9.685975 9.937533 -10.031437 
-0.805042 0.569775 0.980990 91.778150 0.352085 84.756674 -2.970735 -1.159451 2.984803 -3.137946 -7.015296 6.847347 5.270994 11.354296 -23.283244 0.000000 -0.000000 0.000000 2.356522 -0.759519 -1.250456 -0.409020 -2.217278 13.413356 2.056896 -7.033969 -15.724107 0.000000 -0.000000 0.000000 -0.309224 -0.099017 9.557974 0.999198 -2.230187 0.064078 -0.100905 -1.006130 2.582549 1.987717 2.927901 -8.514050 2.309686 -2.802909 -1.675401 -25.202182 3.519855 4.232608 -58.503681 -1.285224 16.418488 -3.566187 -43.623057 19.832889 7.084931 -11.471365 -19.654420 25.873361 1.367144 3.775735 58.450867 1.194354 18.887090 -2.546787 36.248731 9.100430 -9.827010 10.070694 -9.909180 
-0.804175 0.569545 0.980875 91.820921 0.353483 84.969207 -3.023516 -1.241739 2.826022 -3.024443 -7.022494 6.845554 5.253133 11.411394 -23.431951 0.000000 -0.000000 0.000000 2.403476 -0.732883 -1.202591 -0.435651 -2.206133 13.086915 2.097039 -7.054496 -15.950418 0.000000 -0.000000 0.000000 -0.292497 -0.065366 9.491849 0.985213 -2.231871 -0.000920 -0.116992 -1.004007 2.625215 2.096197 2.959410 -8.568668 2.284958 -2.846999 -1.566193 -25.224981 3.574224 4.196465 -58.494078 -1.300523 16.438464 -3.470871 -43.406686 19.687933 7.143229 -11.511444 -19.481364 25.948667 1.279635 3.696585 58.355682 1.167414 18.930390 -2.481804 36.197856 9.143132 -9.789400 10.140845 -9.952856 
